<svg viewBox="0 0 20 20" fill="none" xmlns="http://www.w3.org/2000/svg">
<path d="M12.4855 5.42763C12.8867 5.81988 12.8868 6.46538 12.4856 6.85766L7.43472 11.7967C7.33708 11.8889 7.2592 11.9991 7.20562 12.1211C7.15204 12.243 7.12384 12.3742 7.12266 12.5069C7.12148 12.6396 7.14735 12.7712 7.19875 12.894C7.25015 13.0169 7.32606 13.1285 7.42205 13.2223C7.51804 13.3162 7.63218 13.3904 7.75781 13.4406C7.88345 13.4909 8.01807 13.5162 8.15381 13.515C8.28955 13.5139 8.42369 13.4863 8.54842 13.4339C8.67314 13.3815 8.78595 13.3054 8.88025 13.2099L14.6634 7.55688C15.2386 6.99451 15.5618 6.23178 15.5618 5.43648C15.5618 4.64118 15.2386 3.87845 14.6634 3.31609C14.0882 2.75373 13.3081 2.43779 12.4946 2.43779C11.6811 2.43779 10.901 2.75373 10.3258 3.31609L4.54263 8.97014C4.05814 9.43203 3.67228 9.98337 3.40743 10.5922C3.14258 11.201 3.00402 11.8552 2.99978 12.5168C2.99554 13.1783 3.1257 13.8342 3.38273 14.4462C3.63976 15.0582 4.01852 15.6142 4.49706 16.082C4.97559 16.5498 5.54437 16.92 6.1704 17.1712C6.79642 17.4224 7.46724 17.5496 8.14393 17.5454C8.82061 17.5411 9.48971 17.4056 10.1124 17.1465C10.7351 16.8875 11.299 16.5102 11.7713 16.0365L16.8554 11.0668C17.244 10.6869 17.8649 10.6869 18.2535 11.0668L18.2686 11.0816C18.6699 11.4739 18.6699 12.1194 18.2686 12.5117L13.2168 17.4507C12.5523 18.1004 11.7634 18.6158 10.8951 18.9674C10.0269 19.319 9.09627 19.5 8.15646 19.5C7.21666 19.5 6.28607 19.319 5.4178 18.9674C4.54954 18.6158 3.76062 18.1004 3.09608 17.4507C2.43154 16.801 1.9044 16.0297 1.54475 15.1808C1.18511 14.3319 1 13.4221 1 12.5033C1 11.5845 1.18511 10.6747 1.54475 9.82577C1.9044 8.97689 2.43154 8.20558 3.09608 7.55588L8.88025 1.90283C9.84429 0.992512 11.1355 0.488803 12.4757 0.500189C13.8159 0.511575 15.0979 1.03715 16.0456 1.9637C16.9934 2.89026 17.5309 4.14367 17.5426 5.45397C17.5542 6.76427 17.039 8.02662 16.1079 8.96914L10.3258 14.6252C10.0409 14.9036 9.70272 15.1245 9.33053 15.2752C8.95834 15.4259 8.55945 15.5034 8.15661 15.5033C7.75378 15.5033 7.3549 15.4257 6.98275 15.2749C6.6106 15.1242 6.27247 14.9032 5.98765 14.6247C5.70284 14.3462 5.47693 14.0155 5.32282 13.6517C5.1687 13.2878 5.08941 12.8978 5.08945 12.5039C5.0895 12.1101 5.16889 11.7201 5.32309 11.3563C5.47729 10.9924 5.70329 10.6619 5.98817 10.3834L11.0722 5.41283C11.4609 5.03288 12.0818 5.03288 12.4704 5.41283L12.4855 5.42763Z" fill="currentColor"/>
</svg>
