<svg viewBox="0 0 20 20" fill="none" xmlns="http://www.w3.org/2000/svg">
<path fill-rule="evenodd" clip-rule="evenodd" d="M8.10995 1C6.09173 1 4.15613 1.79841 2.72897 3.21966C1.30181 4.64092 0.5 6.56859 0.5 8.57863C0.5 11.3856 1.88434 13.5022 3.83481 15.1508C5.78413 16.7985 8.30223 17.9817 10.5785 18.9241C11.229 19.1934 11.9398 18.7122 11.9398 18.0114V16.1571C13.9401 16.1441 15.8556 15.3472 17.271 13.9376C18.6982 12.5163 19.5 10.5887 19.5 8.57863C19.5 6.56859 18.6982 4.64092 17.271 3.21966C15.8439 1.79841 13.9083 1 11.8901 1H8.10995ZM4.13564 4.62105C5.18966 3.5714 6.61926 2.98167 8.10995 2.98167H11.8901C12.6282 2.98167 13.359 3.12645 14.041 3.40774C14.7229 3.68903 15.3425 4.10132 15.8644 4.62105C16.3863 5.14079 16.8002 5.75779 17.0827 6.43683C17.3651 7.11587 17.5105 7.84365 17.5105 8.57863C17.5105 9.31361 17.3651 10.0414 17.0827 10.7204C16.8002 11.3995 16.3863 12.0165 15.8644 12.5362C15.3425 13.0559 14.7229 13.4682 14.041 13.7495C13.359 14.0308 12.6282 14.1756 11.8901 14.1756H10.945C10.3958 14.1756 9.95026 14.619 9.95026 15.1664V16.4821C7.37171 15.3113 5.51125 14.1777 4.29303 12.9211C3.06574 11.6552 2.48953 10.2638 2.48953 8.57863C2.48953 7.09429 3.08163 5.6707 4.13564 4.62105Z" fill="currentColor"/>
</svg>
