<svg viewBox="0 0 16 16" fill="none" xmlns="http://www.w3.org/2000/svg">
<path d="M4.48969 2.39924C4.78753 2.11558 5.25625 2.11781 5.55137 2.4043C5.86333 2.70714 5.86094 3.20862 5.5461 3.50847L4.79278 4.22592H8.94747C10.325 4.22592 11.6475 4.74701 12.6237 5.67671C13.6001 6.60664 14.1501 7.86951 14.1501 9.18795C14.1501 10.5064 13.6001 11.7693 12.6237 12.6992C11.6475 13.6289 10.325 14.15 8.94747 14.15H4.01476C3.59972 14.15 3.26326 13.8135 3.26326 13.3985C3.26326 12.9834 3.59972 12.647 4.01476 12.647H8.94747C9.91501 12.647 10.8415 12.2808 11.5236 11.6313C12.2054 10.982 12.5869 10.1029 12.5869 9.18795C12.5869 8.27299 12.2054 7.39393 11.5236 6.74461C10.8415 6.09505 9.91501 5.72893 8.94747 5.72893H4.79278L5.5461 6.44637C5.86094 6.74622 5.86333 7.24771 5.55137 7.55054C5.25625 7.83703 4.78753 7.83927 4.48969 7.55561L1.89665 5.08604C1.86692 5.05773 1.8501 5.01847 1.8501 4.97742C1.8501 4.93637 1.86692 4.89711 1.89665 4.8688L4.48969 2.39924Z" fill="currentColor"/>
</svg>
