<svg viewBox="0 0 16 16" fill="none" xmlns="http://www.w3.org/2000/svg">
<path d="M11.5103 2.39924C11.2125 2.11558 10.7438 2.11781 10.4486 2.4043V2.4043C10.1367 2.70714 10.1391 3.20862 10.4539 3.50847L11.2072 4.22592H7.05253C5.67501 4.22592 4.35252 4.74701 3.37634 5.67671C2.39991 6.60664 1.8499 7.86951 1.8499 9.18795C1.8499 10.5064 2.39991 11.7693 3.37634 12.6992C4.35252 13.6289 5.67501 14.15 7.05253 14.15H11.9852C12.4003 14.15 12.7367 13.8135 12.7367 13.3985V13.3985C12.7367 12.9834 12.4003 12.647 11.9852 12.647H7.05253C6.08499 12.647 5.15845 12.2808 4.47642 11.6313C3.79463 10.982 3.41306 10.1029 3.41306 9.18795C3.41306 8.27299 3.79463 7.39393 4.47642 6.74461C5.15845 6.09505 6.08499 5.72893 7.05253 5.72893H11.2072L10.4539 6.44637C10.1391 6.74622 10.1367 7.24771 10.4486 7.55054V7.55054C10.7438 7.83703 11.2125 7.83927 11.5103 7.55561L14.1034 5.08604C14.1331 5.05773 14.1499 5.01847 14.1499 4.97742C14.1499 4.93637 14.1331 4.89711 14.1034 4.8688L11.5103 2.39924Z" fill="currentColor"/>
</svg>
