<svg viewBox="0 0 20 20" fill="none" xmlns="http://www.w3.org/2000/svg">
<path d="M18.039 14.4661H13.2182C12.5002 14.4661 11.7927 14.2929 11.1558 13.9612C10.5189 13.6295 9.97135 13.1492 9.5596 12.5609L9.10048 11.9052C8.68873 11.3169 8.1412 10.8366 7.5043 10.5049C6.8674 10.1733 6.15992 10.0001 5.44183 10H1.96094" stroke="currentColor" stroke-width="2" stroke-linecap="round" stroke-linejoin="round"/>
<path d="M18.039 5.53369H13.22C12.5015 5.53366 11.7935 5.707 11.1563 6.03899C10.5191 6.37099 9.97132 6.85184 9.5596 7.44073L9.10405 8.09278C8.69241 8.68154 8.14482 9.16231 7.50775 9.4943C6.87067 9.82629 6.1629 9.9997 5.44451 9.99981H1.96094" stroke="currentColor" stroke-width="2" stroke-linecap="round" stroke-linejoin="round"/>
<path d="M15.3594 8.21384L18.039 5.53417L15.3594 2.85449" stroke="currentColor" stroke-width="2" stroke-linecap="round" stroke-linejoin="round"/>
<path d="M15.3594 17.146L18.039 14.4663L15.3594 11.7866" stroke="currentColor" stroke-width="2" stroke-linecap="round" stroke-linejoin="round"/>
</svg>
