<svg viewBox="0 0 16 16" fill="none" xmlns="http://www.w3.org/2000/svg">
<path fill-rule="evenodd" clip-rule="evenodd" d="M3.86676 1.2C3.26561 1.2 2.68907 1.43881 2.26399 1.86389C1.83891 2.28897 1.6001 2.86551 1.6001 3.46666V9.33333C1.6001 9.93449 1.83891 10.511 2.26399 10.9361C2.68907 11.3612 3.26561 11.6 3.86676 11.6H4.0001V12.5333C4.0001 13.7852 5.01492 14.8 6.26676 14.8H12.1334C13.3853 14.8 14.4001 13.7852 14.4001 12.5333V6.66666C14.4001 5.41482 13.3853 4.4 12.1334 4.4H12.0001V3.46666C12.0001 2.86551 11.7613 2.28897 11.3362 1.86389C10.9111 1.43881 10.3346 1.2 9.73343 1.2H3.86676ZM10.4001 4.4V3.46666C10.4001 3.28985 10.3299 3.12028 10.2048 2.99526C10.0798 2.87023 9.91024 2.8 9.73343 2.8H3.86676C3.68995 2.8 3.52038 2.87023 3.39536 2.99526C3.27034 3.12028 3.2001 3.28985 3.2001 3.46666V9.33333C3.2001 9.51014 3.27034 9.67971 3.39536 9.80474C3.52038 9.92976 3.68995 10 3.86676 10H4.0001V6.66666C4.0001 5.41482 5.01492 4.4 6.26676 4.4H10.4001ZM5.6001 10.8V12.5333C5.6001 12.9015 5.89857 13.2 6.26676 13.2H12.1334C12.5016 13.2 12.8001 12.9015 12.8001 12.5333V6.66666C12.8001 6.29847 12.5016 6 12.1334 6H6.26676C5.89857 6 5.6001 6.29847 5.6001 6.66666V10.8Z" fill="currentColor"/>
</svg>
