<svg viewBox="0 0 16 16" fill="none" xmlns="http://www.w3.org/2000/svg">
<path d="M13.5713 7.14282C6.41569 7.14282 9.05092 7.14282 2.42843 7.14282C2.2011 7.14282 1.98309 7.23313 1.82234 7.39387C1.66159 7.55462 1.57129 7.77264 1.57129 7.99997C1.57129 8.22729 1.66159 8.44531 1.82234 8.60606C1.98309 8.7668 2.2011 8.85711 2.42843 8.85711C7.00749 8.85711 8.79211 8.85711 13.5713 8.85711C13.7986 8.85711 14.0166 8.7668 14.1774 8.60606C14.3381 8.44531 14.4284 8.22729 14.4284 7.99997C14.4284 7.77264 14.3381 7.55462 14.1774 7.39387C14.0166 7.23313 13.7986 7.14282 13.5713 7.14282Z" fill="currentColor"/>
</svg>
