<svg viewBox="0 0 16 16" fill="none" xmlns="http://www.w3.org/2000/svg">
<path d="M13.5713 7.14296H8.857V2.42868C8.857 2.20135 8.7667 1.98333 8.60595 1.82258C8.44521 1.66184 8.22719 1.57153 7.99986 1.57153C7.77253 1.57153 7.55451 1.66184 7.39377 1.82258C7.23302 1.98333 7.14272 2.20135 7.14272 2.42868V7.14296H2.42843C2.2011 7.14296 1.98309 7.23327 1.82234 7.39401C1.66159 7.55476 1.57129 7.77278 1.57129 8.0001C1.57129 8.22743 1.66159 8.44545 1.82234 8.6062C1.98309 8.76694 2.2011 8.85725 2.42843 8.85725H7.14272V13.5715C7.14272 13.7989 7.23302 14.0169 7.39377 14.1776C7.55451 14.3384 7.77253 14.4287 7.99986 14.4287C8.22719 14.4287 8.44521 14.3384 8.60595 14.1776C8.7667 14.0169 8.857 13.7989 8.857 13.5715V8.85725H13.5713C13.7986 8.85725 14.0166 8.76694 14.1774 8.6062C14.3381 8.44545 14.4284 8.22743 14.4284 8.0001C14.4284 7.77278 14.3381 7.55476 14.1774 7.39401C14.0166 7.23327 13.7986 7.14296 13.5713 7.14296Z" fill="currentColor"/>
</svg>
