<svg viewBox="0 0 20 20" fill="none" xmlns="http://www.w3.org/2000/svg">
<path d="M10 19C8.8181 19 7.64778 18.7672 6.55585 18.3149C5.46392 17.8626 4.47177 17.1997 3.63604 16.364C2.80031 15.5282 2.13738 14.5361 1.68508 13.4442C1.23279 12.3522 1 11.1819 1 10C1 8.8181 1.23279 7.64778 1.68508 6.55585C2.13738 5.46392 2.80031 4.47177 3.63604 3.63604C4.47177 2.80031 5.46392 2.13738 6.55585 1.68508C7.64778 1.23279 8.8181 1 10 1C12.3869 1 14.6761 1.94821 16.364 3.63604C18.0518 5.32387 19 7.61305 19 10C19 12.3869 18.0518 14.6761 16.364 16.364C14.6761 18.0518 12.3869 19 10 19ZM10 17C10.9193 17 11.8295 16.8189 12.6788 16.4672C13.5281 16.1154 14.2997 15.5998 14.9497 14.9497C15.5998 14.2997 16.1154 13.5281 16.4672 12.6788C16.8189 11.8295 17 10.9193 17 10C17 9.08075 16.8189 8.1705 16.4672 7.32122C16.1154 6.47194 15.5998 5.70026 14.9497 5.05025C14.2997 4.40024 13.5281 3.88463 12.6788 3.53284C11.8295 3.18106 10.9193 3 10 3C8.14348 3 6.36301 3.7375 5.05025 5.05025C3.7375 6.36301 3 8.14348 3 10C3 11.8565 3.7375 13.637 5.05025 14.9497C6.36301 16.2625 8.14348 17 10 17ZM11 10H13C13.5523 10 14 10.4477 14 11C14 11.5523 13.5523 12 13 12H10C9.44771 12 9 11.5523 9 11V6C9 5.44772 9.44771 5 10 5C10.5523 5 11 5.44772 11 6V10Z" fill="currentColor"/>
</svg>
