<svg viewBox="0 0 16 16" fill="none" xmlns="http://www.w3.org/2000/svg">
<path fill-rule="evenodd" clip-rule="evenodd" d="M4.2002 3.5V2.5C4.2002 1.50588 5.00608 0.699997 6.0002 0.699997H10.0002C10.9943 0.699997 11.8002 1.50588 11.8002 2.5V3.5H14.0002C14.442 3.5 14.8002 3.85817 14.8002 4.3C14.8002 4.74183 14.442 5.1 14.0002 5.1H13.2712L12.8467 13.5899C12.7988 14.5479 12.0081 15.3 11.049 15.3H4.95146C3.99229 15.3 3.20161 14.5479 3.15371 13.5899L2.72921 5.1H2.0002C1.55837 5.1 1.2002 4.74183 1.2002 4.3C1.2002 3.85817 1.55837 3.5 2.0002 3.5H4.2002ZM5.8002 2.5C5.8002 2.38954 5.88974 2.3 6.0002 2.3H10.0002C10.1107 2.3 10.2002 2.38954 10.2002 2.5V3.5H5.8002V2.5ZM4.33121 5.1H11.6692L11.2487 13.51C11.2434 13.6164 11.1555 13.7 11.049 13.7H4.95146C4.84489 13.7 4.75703 13.6164 4.75171 13.51L4.33121 5.1Z" fill="currentColor"/>
</svg>
